<?xml version="1.0" encoding="utf-8"?>
<!-- Svg Vector Icons : http://www.onlinewebfonts.com/icon -->
<!DOCTYPE svg PUBLIC "-//W3C//DTD SVG 1.1//EN" "http://www.w3.org/Graphics/SVG/1.1/DTD/svg11.dtd">
<svg version="1.1" xmlns="http://www.w3.org/2000/svg" xmlns:xlink="http://www.w3.org/1999/xlink" x="0px" y="0px" viewBox="0 0 1000 1000" enable-background="new 0 0 1000 1000" xml:space="preserve">
<metadata> Svg Vector Icons : http://www.onlinewebfonts.com/icon </metadata>
<g><g transform="translate(0.000000,511.000000) scale(0.100000,-0.100000)"><path d="M2201.1,4983.8c-254.5-54.2-504.9-248.3-609.2-471.5c-116.8-248.3-121-133.5,96-2747.7c146-1727.5,200.3-2474.4,200.3-2716.4c0-479.9,77.2-840.8,262.9-1226.7c183.6-383.9,548.7-813.7,901.3-1057.8l171.1-121v-640.5c0-617.5,2.1-644.7,43.8-696.8c23-31.3,77.2-64.7,118.9-77.2c52.2-16.7,580-20.9,1669.1-16.7l1593.9,6.3l60.5,68.8l60.5,66.8v404.8v402.6l89.7,35.5c279.6,106.4,663.4,415.2,861.6,692.6c114.7,160.7,260.8,467.3,323.4,676c43.8,148.1,48,208.6,60.5,1074.5l14.6,918l191.9,2065.5c171.1,1829.7,189.9,2080.1,169,2199c-48,281.7-231.6,523.7-492.4,650.9c-116.8,58.4-166.9,70.9-321.3,77.2c-294.2,14.6-502.8-64.7-690.6-260.8c-206.6-214.9-231.6-304.6-300.4-1070.3c-29.2-327.6-56.3-634.2-64.7-684.3l-10.4-89.7l-104.3,96c-231.6,217-565.4,294.2-870,200.3c-102.2-29.2-192-77.2-281.7-148.1l-135.6-102.2l-58.4,62.6c-33.4,35.5-127.3,96-210.7,137.7c-123.1,60.5-177.3,75.1-323.4,83.5c-388,25-703.1-162.7-870-515.3c-70.9-150.2-75.1-166.9-81.4-431.9l-8.4-275.4l-70.9-41.7l-68.8-41.7L3505,1556c-6.3,48-62.6,680.1-125.2,1402c-64.7,724-129.4,1362.4-146,1418.7c-39.6,139.8-171.1,340.1-277.5,423.5c-108.5,87.6-281.6,164.8-421.4,191.9C2399.3,5017.2,2347.1,5017.2,2201.1,4983.8z M2572.4,4514.4c98.1-50.1,181.5-137.7,219.1-231.6c20.9-48,79.3-615.5,173.2-1679.5l139.8-1606.5l-379.7-678.1C2514-54.7,2336.7-365.5,2328.3-373.9c-18.8-22.9-383.9,4408.4-373.5,4544c18.8,221.1,200.3,383.9,427.7,383.9C2451.4,4554,2524.4,4539.4,2572.4,4514.4z M7807,4063.7c148.1-75.1,221.2-185.7,231.6-352.6c4.2-68.9-75.1-1013.9-175.2-2098.8L7681.8-359.2l-14.6-907.5c-14.6-1001.4-16.7-1011.9-158.6-1312.3c-196.1-419.3-542.4-730.2-961.8-865.8c-66.8-22.9-129.4-60.5-162.7-98c-52.2-62.6-52.2-68.9-52.2-427.7v-363H4996.7H3661.5v586.2c0,373.5-8.3,600.9-23,625.9c-10.4,23-75.1,75.1-139.8,116.8c-192,123.1-448.6,327.5-565.4,454.8c-306.7,335.9-529.9,792.8-575.8,1182.9l-12.5,110.6l573.7,1018.1c315,559.1,607.1,1064,648.8,1120.3c308.8,421.4,738.5,440.2,1128.7,50.1c177.3-177.3,231.6-348.4,175.2-555c-12.5-41.7-189.9-356.7-396.4-701l-375.5-628l2.1-360.9c0-421.4,16.7-488.2,125.2-548.7c62.6-31.3,91.8-35.5,156.5-20.9c118.9,31.3,175.2,125.2,175.2,294.2v131.4l100.1,14.6c154.4,20.9,304.6,85.5,442.3,187.8l127.3,93.9l87.6-75.1c536.2-459,1364.5-127.3,1454.2,584.2c12.5,91.8,106.4,1116.2,210.7,2274.1c104.3,1160,198.2,2142.7,208.6,2188.5c12.5,43.8,56.3,116.8,98.1,162.7C7425.2,4120.1,7623.4,4153.5,7807,4063.7z M4792.3,2261.2c85.5-60.5,156.5-156.5,183.6-254.5c25-87.6,27.1-707.3,2.1-707.3c-10.4,0-31.3,16.7-45.9,35.5c-56.3,66.8-333.8,233.7-463.2,275.4c-70.9,22.9-179.4,48-237.8,56.3l-110.6,14.6v154.4c0,235.8,70.9,367.2,239.9,448.6C4479.3,2340.4,4692.1,2327.9,4792.3,2261.2z M6127.5,2261.2c85.5-60.5,156.5-156.5,183.6-254.5c12.5-41.7,20.9-586.3,20.9-1360.3c0-1118.3-4.2-1299.8-33.4-1366.5c-137.7-329.7-575.8-375.5-774-79.3l-68.8,100.2V650.5c0,1266.4,4.2,1351.9,39.6,1431.2c41.7,89.7,102.2,152.3,200.3,206.5C5791.6,2340.4,6031.6,2325.8,6127.5,2261.2z M4975.9-688.9c-29.2-100.2-129.4-214.9-233.7-267.1c-154.4-79.3-148.1-43.8,52.2,290l191.9,317.1l6.3-129.4C4996.7-551.2,4988.4-645.1,4975.9-688.9z"/></g></g>
</svg>